<svg viewBox="0 0 50 50" xmlns="http://www.w3.org/2000/svg" xmlns:xlink="http://www.w3.org/1999/xlink" width="50.000000" height="50.000000" fill="none">
	<rect id="Frame" width="50.000000" height="50.000000" x="0.000000" y="0.000000" />
	<path id="Vector" d="M40.91 30.23C41.6844 30.23 42.4271 29.9223 42.9748 29.3747C43.5224 28.8271 43.83 28.0844 43.83 27.31C43.8282 27.0284 43.7844 26.7486 43.7 26.48L38.13 28.15C38.3069 28.7502 38.6733 29.2771 39.1743 29.652C39.6754 30.0269 40.2842 30.2296 40.91 30.23Z" fill="rgb(209,81,135)" fill-rule="nonzero" />
	<path id="Vector" d="M40.91 24.3901C40.1373 24.3928 39.3972 24.7016 38.8517 25.2489C38.3063 25.7962 38 26.5374 38 27.3101C38.0065 27.5954 38.0536 27.8782 38.14 28.1501L43.71 26.4801C43.531 25.8764 43.1617 25.3468 42.6571 24.9701C42.1525 24.5935 41.5397 24.39 40.91 24.3901Z" fill="rgb(164,69,187)" fill-rule="nonzero" />
	<path id="Vector" d="M6.16998 27.31C6.16927 28.0096 6.42065 28.6861 6.87807 29.2155C7.33549 29.7449 7.96833 30.0918 8.66067 30.1926C9.353 30.2934 10.0585 30.1414 10.6479 29.7644C11.2373 29.3875 11.6711 28.8108 11.87 28.14L6.29998 26.48C6.2156 26.7486 6.17178 27.0284 6.16998 27.31Z" fill="rgb(209,81,135)" fill-rule="nonzero" />
	<path id="Vector" d="M9.08999 24.3901C8.46203 24.3922 7.85147 24.5966 7.34889 24.9731C6.8463 25.3496 6.47848 25.8781 6.29999 26.4801L11.87 28.1401C11.9578 27.872 12.005 27.5922 12.01 27.3101C12.01 26.9267 11.9345 26.547 11.7877 26.1927C11.641 25.8384 11.4259 25.5165 11.1547 25.2454C10.8836 24.9742 10.5617 24.7592 10.2074 24.6124C9.85315 24.4657 9.47345 24.3901 9.08999 24.3901Z" fill="rgb(164,69,187)" fill-rule="nonzero" />
	<path id="Vector" d="M25 35.2701C29.8822 35.2701 33.84 31.3123 33.84 26.4301C33.84 21.5479 29.8822 17.5901 25 17.5901C20.1178 17.5901 16.16 21.5479 16.16 26.4301C16.16 31.3123 20.1178 35.2701 25 35.2701Z" fill="rgb(164,69,187)" fill-rule="evenodd" />
	<path id="Vector" d="M48.88 22.89L33.1 22.89C32.472 21.4511 31.4722 20.2054 30.2033 19.281C28.9344 18.3565 27.4421 17.7867 25.88 17.63L25.88 11.63C25.8813 11.5162 25.8601 11.4033 25.8174 11.2978C25.7748 11.1923 25.7117 11.0963 25.6317 11.0154C25.5517 10.9345 25.4564 10.8703 25.3514 10.8264C25.2464 10.7826 25.1338 10.76 25.02 10.76C24.9062 10.76 24.7936 10.7826 24.6886 10.8264C24.5836 10.8703 24.4883 10.9345 24.4083 11.0154C24.3283 11.0963 24.2652 11.1923 24.2226 11.2978C24.1799 11.4033 24.1587 11.5162 24.16 11.63L24.16 17.63C22.5979 17.7867 21.1056 18.3565 19.8367 19.281C18.5678 20.2054 17.568 21.4511 16.94 22.89L1.12 22.89C0.889262 22.89 0.667974 22.9817 0.504817 23.1448C0.34166 23.308 0.25 23.5293 0.25 23.76L0.25 24C0.250152 24.1879 0.310416 24.3707 0.421975 24.5219C0.533533 24.673 0.690531 24.7845 0.87 24.84L6.3 26.48C6.49202 25.8008 6.92438 25.2145 7.51655 24.8303C8.10872 24.4462 8.82033 24.2904 9.51885 24.3919C10.2174 24.4934 10.8552 24.8454 11.3135 25.3822C11.7718 25.9191 12.0193 26.6042 12.01 27.31C12.005 27.5921 11.9578 27.8719 11.87 28.14L16.76 29.61L16.76 29.4C18.04 32.21 21.24 33.5 24.99 33.5C28.74 33.5 31.99 32.2 33.23 29.38L33.23 29.61L38.11 28.15C38.0236 27.8781 37.9765 27.5952 37.97 27.31C37.9607 26.6042 38.2082 25.9191 38.6665 25.3822C39.1248 24.8454 39.7626 24.4934 40.4612 24.3919C41.1597 24.2904 41.8713 24.4462 42.4635 24.8303C43.0556 25.2145 43.488 25.8008 43.68 26.48L49.11 24.85C49.2895 24.7945 49.4465 24.683 49.558 24.5319C49.6696 24.3807 49.7298 24.1979 49.73 24.01L49.73 23.76C49.7301 23.5327 49.6412 23.3144 49.4823 23.1518C49.3234 22.9892 49.1073 22.8952 48.88 22.89Z" fill="rgb(111,44,255)" fill-rule="nonzero" />
	<path id="Vector" d="M30.3 22.01L30.3 22.89L25 24.66L19.7 22.89L19.7 22.01L30.3 22.01Z" fill="rgb(255,255,255)" fill-rule="nonzero" />
</svg>
