<svg viewBox="0 0 50 50" xmlns="http://www.w3.org/2000/svg" xmlns:xlink="http://www.w3.org/1999/xlink" width="50.000000" height="50.000000" fill="none">
	<rect id="Frame" width="50.000000" height="50.000000" x="0.000000" y="0.000000" />
	<path id="Vector" d="M25 42.78C25.05 40.26 25.59 31.71 30.66 24.78C30.91 24.43 31.17 24.1 31.43 23.78C30.93 14.1 25 6.47998 25 6.47998C25 6.47998 19.07 14.1 18.57 23.74C18.83 24.06 19.09 24.39 19.34 24.74C24.41 31.71 25 40.26 25 42.78Z" fill="rgb(111,44,255)" fill-rule="nonzero" />
	<path id="Vector" d="M18.57 23.74C12.51 16.23 3.23001 13.55 3.23001 13.55C3.23001 13.55 2.87001 24.0601 8.88001 32.34C14.89 40.62 25 43.5201 25 43.5201C25 43.5201 18.54 35.23 18.54 25C18.54 24.58 18.55 24.16 18.57 23.74Z" fill="rgb(209,81,135)" fill-rule="nonzero" />
	<path id="Vector" d="M25 42.78C24.95 40.26 24.41 31.71 19.34 24.78C19.09 24.43 18.83 24.1 18.57 23.78C18.57 24.2 18.57 24.62 18.57 25.04C18.54 35.23 25 43.52 25 43.52C25 43.52 25 43.26 25 42.78Z" fill="rgb(164,69,187)" fill-rule="nonzero" />
	<path id="Vector" d="M46.77 13.55C46.77 13.55 37.49 16.23 31.43 23.74C31.43 24.16 31.43 24.58 31.43 25C31.46 35.23 25 43.5201 25 43.5201C25 43.5201 35.1 40.6101 41.12 32.34C47.14 24.07 46.77 13.55 46.77 13.55Z" fill="rgb(209,81,135)" fill-rule="nonzero" />
	<path id="Vector" d="M31.43 23.74C31.17 24.06 30.91 24.39 30.66 24.74C25.59 31.74 25.05 40.26 25 42.74C25 43.22 25 43.48 25 43.48C25 43.48 31.46 35.23 31.46 25C31.46 24.58 31.45 24.16 31.43 23.74Z" fill="rgb(164,69,187)" fill-rule="nonzero" />
	<path id="Vector" transform="matrix(0,1,-1,0,25,42.78)" />
</svg>
