<svg viewBox="0 0 50 50" xmlns="http://www.w3.org/2000/svg" xmlns:xlink="http://www.w3.org/1999/xlink" width="50.000000" height="50.000000" fill="none">
	<rect id="Frame" width="50.000000" height="50.000000" x="0.000000" y="0.000000" />
	<path id="Vector" d="M33.0001 26.0699L36.9001 29.9999C36.9996 30.1003 37.1179 30.18 37.2484 30.2344C37.3788 30.2887 37.5188 30.3167 37.6601 30.3167C37.8014 30.3167 37.9413 30.2887 38.0718 30.2344C38.2022 30.18 38.3206 30.1003 38.4201 29.9999L41.1801 27.2399L41.1801 12.9999C41.1814 12.7873 41.1194 12.5791 41.0019 12.4019C40.8845 12.2247 40.7168 12.0865 40.5205 12.0049C40.3241 11.9234 40.1079 11.9022 39.8995 11.944C39.691 11.9859 39.4997 12.0889 39.3501 12.2399L28.4701 23.1499C28.3706 23.2503 28.2522 23.33 28.1218 23.3844C27.9913 23.4387 27.8514 23.4667 27.7101 23.4667C27.5688 23.4667 27.4288 23.4387 27.2984 23.3844C27.1679 23.33 27.0496 23.2503 26.9501 23.1499L20.6201 16.8199C20.5206 16.7195 20.4022 16.6399 20.2718 16.5855C20.1413 16.5311 20.0014 16.5031 19.8601 16.5031C19.7188 16.5031 19.5788 16.5311 19.4484 16.5855C19.3179 16.6399 19.1996 16.7195 19.1001 16.8199L3.36008 32.6899C3.21248 32.8401 3.11248 33.0305 3.07259 33.2373C3.03271 33.444 3.05471 33.6579 3.13585 33.8522C3.21699 34.0465 3.35366 34.2126 3.52873 34.3296C3.70381 34.4466 3.90951 34.5093 4.12008 34.5099L23.1201 34.5099L31.4901 26.0699C31.6906 25.8702 31.9621 25.7581 32.2451 25.7581C32.5281 25.7581 32.7995 25.8702 33.0001 26.0699Z" fill="rgb(111,0,255)" fill-rule="nonzero" />
	<path id="Vector" d="M45.12 23.26L41.18 27.21L41.18 33.43C41.18 33.7138 41.0672 33.9859 40.8666 34.1866C40.6659 34.3873 40.3938 34.5 40.11 34.5L23.11 34.5L21.42 36.21C21.269 36.3596 21.1659 36.5509 21.1241 36.7594C21.0822 36.9678 21.1034 37.184 21.185 37.3804C21.2665 37.5768 21.4047 37.7444 21.5819 37.8619C21.7592 37.9793 21.9674 38.0413 22.18 38.04L45.88 38.04C46.0222 38.0467 46.1642 38.025 46.2979 37.9761C46.4316 37.9272 46.5541 37.8521 46.6584 37.7553C46.7627 37.6584 46.8467 37.5417 46.9053 37.412C46.964 37.2824 46.9961 37.1423 47 37L47 24C47.0087 23.7782 46.9481 23.5591 46.8268 23.3733C46.7054 23.1874 46.5293 23.0438 46.3227 22.9625C46.1161 22.8812 45.8894 22.8662 45.6739 22.9195C45.4584 22.9728 45.2648 23.0918 45.12 23.26Z" fill="rgb(209,81,135)" fill-rule="nonzero" />
	<path id="Vector" d="M41.18 33.43L41.18 27.21L38.42 30C38.3205 30.1004 38.2021 30.18 38.0717 30.2344C37.9412 30.2888 37.8013 30.3168 37.66 30.3168C37.5187 30.3168 37.3787 30.2888 37.2483 30.2344C37.1178 30.18 36.9995 30.1004 36.9 30L33 26.07C32.9005 25.9696 32.7821 25.8899 32.6517 25.8355C32.5212 25.7812 32.3813 25.7532 32.24 25.7532C32.0987 25.7532 31.9587 25.7812 31.8283 25.8355C31.6978 25.8899 31.5795 25.9696 31.48 26.07L23.11 34.51L40.11 34.51C40.2513 34.51 40.3913 34.482 40.5218 34.4276C40.6523 34.3732 40.7707 34.2935 40.8701 34.1931C40.9696 34.0926 41.0482 33.9735 41.1014 33.8425C41.1546 33.7116 41.1813 33.5713 41.18 33.43Z" fill="rgb(164,69,187)" fill-rule="nonzero" />
</svg>
