<svg viewBox="0 0 50 50" xmlns="http://www.w3.org/2000/svg" xmlns:xlink="http://www.w3.org/1999/xlink" width="50.000000" height="50.000000" fill="none">
	<rect id="Frame" width="50.000000" height="50.000000" x="0.000000" y="0.000000" />
	<path id="Vector" d="M25 46.4201C36.83 46.4201 46.42 36.83 46.42 25.0001C46.42 13.1701 36.83 3.58008 25 3.58008C13.1701 3.58008 3.58002 13.1701 3.58002 25.0001C3.58002 36.83 13.1701 46.4201 25 46.4201Z" fill="rgb(111,44,255)" fill-rule="evenodd" />
	<path id="Vector" d="M20.54 23.59C22.2245 23.59 23.59 22.2245 23.59 20.54C23.59 18.8555 22.2245 17.49 20.54 17.49C18.8555 17.49 17.49 18.8555 17.49 20.54C17.49 22.2245 18.8555 23.59 20.54 23.59Z" fill="rgb(209,81,135)" fill-rule="evenodd" />
	<path id="Vector" d="M29.46 23.59C31.1444 23.59 32.51 22.2245 32.51 20.54C32.51 18.8555 31.1444 17.49 29.46 17.49C27.7755 17.49 26.41 18.8555 26.41 20.54C26.41 22.2245 27.7755 23.59 29.46 23.59Z" fill="rgb(209,81,135)" fill-rule="evenodd" />
	<path id="Vector" d="M20.54 32.5099C22.2245 32.5099 23.59 31.1444 23.59 29.4599C23.59 27.7754 22.2245 26.4099 20.54 26.4099C18.8555 26.4099 17.49 27.7754 17.49 29.4599C17.49 31.1444 18.8555 32.5099 20.54 32.5099Z" fill="rgb(209,81,135)" fill-rule="evenodd" />
	<path id="Vector" d="M29.46 32.5099C31.1444 32.5099 32.51 31.1444 32.51 29.4599C32.51 27.7754 31.1444 26.4099 29.46 26.4099C27.7755 26.4099 26.41 27.7754 26.41 29.4599C26.41 31.1444 27.7755 32.5099 29.46 32.5099Z" fill="rgb(209,81,135)" fill-rule="evenodd" />
</svg>
