<svg viewBox="0 0 18 19" xmlns="http://www.w3.org/2000/svg" xmlns:xlink="http://www.w3.org/1999/xlink" width="18.000000" height="19.000000" fill="none">
	<rect id="Frame" width="18.000000" height="19.000000" x="0.000000" y="0.000000" />
	<g id="Group">
		<path id="Vector" d="M0.27002 6.78L3.67999 6.78L3.67999 18.42L0.27002 18.42L0.27002 6.78ZM3.96002 3.1C3.96002 4.25 3.06998 5.2 1.97998 5.2C0.87998 5.2 0 4.25 0 3.1C0 1.94 0.87998 1 1.97998 1C3.06998 1 3.96002 1.94 3.96002 3.1Z" fill="rgb(255,255,255)" fill-rule="nonzero" />
	</g>
	<g id="Group">
		<path id="Vector" d="M6 6.28002L9.40002 6.28002L9.40002 7.87002L9.45001 7.87002C9.78825 7.28104 10.2809 6.79559 10.8748 6.46604C11.4686 6.13649 12.1413 5.97536 12.82 6.00002C16.41 6.00002 17.08 8.40002 17.08 11.52L17.08 17.88L13.53 17.88L13.53 12.24C13.53 10.89 13.51 9.16002 11.69 9.16002C9.83 9.16002 9.56 10.63 9.56 12.14L9.56 17.88L6.01001 17.88L6 6.28002Z" fill="rgb(255,255,255)" fill-rule="nonzero" />
	</g>
</svg>
