<svg viewBox="0 0 19.536 18" xmlns="http://www.w3.org/2000/svg" xmlns:xlink="http://www.w3.org/1999/xlink" width="19.535995" height="18.000000" fill="none" customFrame="#000000">
	<path id="Vector" d="M19.536 9C19.536 11.3869 18.5069 13.6761 16.675 15.364C14.8432 17.0518 12.3586 18 9.768 18C7.17736 18 4.69284 17.0518 2.86099 15.364C1.02913 13.6761 0 11.3869 0 9C0 6.61305 1.02913 4.32387 2.86099 2.63604C4.69284 0.948215 7.17736 0 9.768 0C12.3586 0 14.8432 0.948215 16.675 2.63604C18.5069 4.32387 19.536 6.61305 19.536 9ZM12.2025 2.24307C12.8186 3.22615 13.2845 4.2923 13.6151 5.39999L16.6056 5.39999C15.595 3.90496 14.0392 2.79065 12.2175 2.25693L12.2025 2.24307ZM7.8144 5.39999L11.7216 5.39999C11.2879 4.10983 10.628 2.89375 9.768 1.79998C8.908 2.89375 8.24808 4.10983 7.8144 5.39999ZM5.3649 10.8C5.20256 9.60464 5.20256 8.39536 5.3649 7.20002L2.20907 7.20002C1.89085 8.38211 1.89085 9.61789 2.20907 10.8L5.3649 10.8ZM7.31848 15.7431C6.71286 14.7529 6.2434 13.6971 5.92091 12.6L2.9304 12.6C3.94202 14.0942 5.49737 15.2083 7.31848 15.7431ZM7.31848 2.24307C5.49503 2.78138 3.93935 3.90058 2.9304 5.39999L5.93593 5.39999C6.25152 4.2923 6.71739 3.24001 7.33352 2.25693L7.31848 2.24307ZM11.7216 12.6L7.8144 12.6C8.26523 13.9015 8.92645 15.1062 9.768 16.2C10.6096 15.1062 11.2708 13.9015 11.7216 12.6ZM12.2025 9C12.2025 8.39077 12.1424 7.7954 12.0522 7.20002L7.48378 7.20002C7.2953 8.39373 7.2953 9.60627 7.48378 10.8L12.0522 10.8C12.1424 10.2046 12.2025 9.60923 12.2025 9ZM16.6056 12.6L13.6001 12.6C13.2845 13.7077 12.8186 14.76 12.2025 15.7431C14.0279 15.209 15.5883 14.0952 16.6056 12.6ZM17.3269 10.8C17.6545 9.61896 17.6545 8.38104 17.3269 7.20002L14.1711 7.20002C14.3334 8.39536 14.3334 9.60464 14.1711 10.8L17.3269 10.8Z" fill="rgb(255,255,255)" fill-rule="nonzero" />
</svg>
