<svg viewBox="0 0 50 50" xmlns="http://www.w3.org/2000/svg" xmlns:xlink="http://www.w3.org/1999/xlink" width="50.000000" height="50.000000" fill="none">
	<rect id="Frame" width="50.000000" height="50.000000" x="0.000000" y="0.000000" />
	<path id="Vector" d="M21.4731 4.30951C20.3593 4.78993 19.3552 5.49247 18.5222 6.37418C17.6891 7.25589 17.0447 8.29824 16.6282 9.4375C16.2117 10.5768 16.032 11.789 16.1 13.0001L16.6 21.4201L33.4 21.4201L33.9 13.0001C33.968 11.789 33.7883 10.5768 33.3718 9.4375C32.9553 8.29824 32.3109 7.25589 31.4778 6.37418C30.6448 5.49247 29.6407 4.78993 28.5269 4.30951C27.4131 3.82909 26.213 3.58089 25 3.58008C23.787 3.58089 22.5869 3.82909 21.4731 4.30951Z" fill-rule="nonzero" stroke="rgb(111,44,255)" stroke-width="2.1400001" />
	<path id="Vector" d="M41.64 46.4199L8.36 46.4199C8.13423 46.4201 7.91076 46.3747 7.70292 46.2865C7.49508 46.1984 7.30714 46.0692 7.15033 45.9068C6.99352 45.7444 6.87105 45.5521 6.79024 45.3413C6.70943 45.1305 6.67193 44.9055 6.68 44.6799L7.6 21.7599C7.62057 21.3284 7.80661 20.9213 8.11947 20.6234C8.43233 20.3254 8.84795 20.1594 9.28 20.1599L40.72 20.1599C41.152 20.1594 41.5677 20.3254 41.8805 20.6234C42.1934 20.9213 42.3794 21.3284 42.4 21.7599L43.32 44.6799C43.3281 44.9055 43.2906 45.1305 43.2098 45.3413C43.1289 45.5521 43.0065 45.7444 42.8497 45.9068C42.6928 46.0692 42.5049 46.1984 42.2971 46.2865C42.0892 46.3747 41.8658 46.4201 41.64 46.4199Z" fill="rgb(111,44,255)" fill-rule="nonzero" />
	<path id="Vector" d="M42.4 21.7599L42.5 24.3599L39.18 24.3599L39.18 28.5599L10.82 28.5599L10.82 24.3599L7.5 24.3599L7.6 21.7599C7.62057 21.3284 7.80661 20.9213 8.11947 20.6234C8.43233 20.3254 8.84796 20.1594 9.28 20.1599L40.72 20.1599C41.152 20.1594 41.5677 20.3254 41.8805 20.6234C42.1934 20.9213 42.3794 21.3284 42.4 21.7599Z" fill="rgb(209,81,135)" fill-rule="nonzero" />
	<path id="Vector" d="M39.19 28.5601L10.82 28.5601L10.82 33.8101L39.19 33.8101L39.19 28.5601Z" fill="rgb(164,69,187)" fill-rule="evenodd" />
	<path id="Vector" d="M27.63 33.8099C27.632 34.3305 27.4794 34.84 27.1916 35.2738C26.9039 35.7076 26.4938 36.0463 26.0134 36.2469C25.533 36.4475 25.0039 36.501 24.4931 36.4006C23.9823 36.3003 23.5127 36.0506 23.1439 35.6832C22.7751 35.3158 22.5236 34.8472 22.4213 34.3367C22.319 33.8263 22.3705 33.297 22.5693 32.8158C22.768 32.3347 23.1051 31.9233 23.5378 31.6339C23.9705 31.3444 24.4794 31.1899 25 31.1899C25.6958 31.1899 26.3632 31.4657 26.8562 31.9567C27.3491 32.4478 27.6274 33.1142 27.63 33.8099Z" fill="rgb(209,81,135)" fill-rule="nonzero" />
</svg>
