<svg viewBox="0 0 50 50" xmlns="http://www.w3.org/2000/svg" xmlns:xlink="http://www.w3.org/1999/xlink" width="50.000000" height="50.000000" fill="none">
	<rect id="Frame" width="50.000000" height="50.000000" x="0.000000" y="0.000000" />
	<path id="Vector" d="M30.46 13.6699L11.71 13.6699C11.4869 13.666 11.2652 13.7065 11.0579 13.7891C10.8506 13.8718 10.6618 13.9949 10.5026 14.1513C10.3434 14.3077 10.217 14.4942 10.1307 14.7C10.0444 14.9058 9.99996 15.1268 10 15.3499L10 39.0799C9.99999 39.5238 10.1756 39.9496 10.4885 40.2644C10.8014 40.5791 11.2262 40.7573 11.67 40.7599L35.44 40.7599C35.8856 40.7599 36.3129 40.5829 36.6279 40.2679C36.943 39.9528 37.12 39.5255 37.12 39.0799L37.12 20.3299C35.3537 20.3299 33.6597 19.6283 32.4107 18.3793C31.1617 17.1303 30.46 15.4363 30.46 13.6699Z" fill="rgb(111,44,255)" fill-rule="nonzero" />
	<path id="Vector" d="M37.12 7.00001C35.3536 7.00001 33.6596 7.70168 32.4106 8.95068C31.1616 10.1997 30.46 11.8937 30.46 13.66L35.46 13.66C35.9055 13.66 36.3328 13.837 36.6479 14.1521C36.963 14.4671 37.14 14.8944 37.14 15.34L37.14 20.34C38.909 20.3374 40.6044 19.6321 41.8534 18.3793C43.1024 17.1266 43.8026 15.429 43.8 13.66C43.7973 11.891 43.092 10.1955 41.8393 8.94653C40.5866 7.69754 38.889 6.99736 37.12 7.00001Z" fill="rgb(209,81,135)" fill-rule="nonzero" />
	<path id="Vector" d="M35.44 13.6699L30.44 13.6699C30.44 15.4363 31.1417 17.1303 32.3907 18.3793C33.6397 19.6282 35.3337 20.3299 37.1 20.3299L37.1 15.3299C37.0948 14.8913 36.9183 14.4721 36.6081 14.1619C36.2979 13.8517 35.8786 13.6751 35.44 13.6699Z" fill="rgb(164,69,187)" fill-rule="nonzero" />
</svg>
