<svg viewBox="0 0 50 50" xmlns="http://www.w3.org/2000/svg" xmlns:xlink="http://www.w3.org/1999/xlink" width="50.000000" height="50.000000" fill="none">
	<rect id="Frame" width="50.000000" height="50.000000" x="0.000000" y="0.000000" />
	<g id="Group">
		<g style="mix-blend-mode:multiply">
			<path id="Vector" d="M32.85 24.6299C31.977 25.9065 30.8057 26.951 29.4378 27.6727C28.0699 28.3945 26.5466 28.7717 25 28.7717C23.4534 28.7717 21.9301 28.3945 20.5622 27.6727C19.1943 26.951 18.0231 25.9065 17.15 24.6299C15.3655 25.8834 13.9094 27.5485 12.905 29.4842C11.9006 31.4199 11.3775 33.5691 11.38 35.7499L11.38 46.8799L38.62 46.8799L38.62 35.7499C38.6225 33.5691 38.0994 31.4199 37.095 29.4842C36.0906 27.5485 34.6345 25.8834 32.85 24.6299Z" fill="rgb(111,0,255)" fill-rule="nonzero" />
		</g>
		<g style="mix-blend-mode:multiply">
			<path id="Vector" d="M32.85 24.6299C33.827 23.2012 34.3956 21.5329 34.4945 19.8049C34.5933 18.0769 34.2187 16.3547 33.411 14.8239C32.6034 13.2931 31.3932 12.0117 29.911 11.1179C28.4288 10.2241 26.7308 9.75171 25 9.75171C23.2692 9.75171 21.5711 10.2241 20.089 11.1179C18.6068 12.0117 17.3966 13.2931 16.5889 14.8239C15.7812 16.3547 15.4067 18.0769 15.5055 19.8049C15.6044 21.5329 16.173 23.2012 17.15 24.6299C19.4442 23.0029 22.1874 22.1289 25 22.1289C27.8126 22.1289 30.5557 23.0029 32.85 24.6299Z" fill="rgb(209,81,135)" fill-rule="nonzero" />
		</g>
		<path id="Vector" d="M25 28.7699C26.5465 28.7701 28.0697 28.3932 29.4376 27.6718C30.8055 26.9504 31.9768 25.9062 32.85 24.6299C30.5558 23.0029 27.8126 22.1289 25 22.1289C22.1874 22.1289 19.4443 23.0029 17.15 24.6299C18.0233 25.9062 19.1946 26.9504 20.5625 27.6718C21.9304 28.3932 23.4536 28.7701 25 28.7699Z" fill="rgb(164,69,187)" fill-rule="nonzero" />
		<path id="Vector" d="M7.75 18.79L11.84 19.25L7.75 19.72L7.75 18.79Z" fill="rgb(111,44,255)" fill-rule="nonzero" />
		<path id="Vector" d="M25.46 2.01001L25 6.09001L24.54 2.01001L25.46 2.01001Z" fill="rgb(111,44,255)" fill-rule="nonzero" />
		<path id="Vector" d="M42.25 19.72L38.16 19.25L42.25 18.79L42.25 19.72Z" fill="rgb(111,44,255)" fill-rule="nonzero" />
	</g>
</svg>
