<svg viewBox="0 0 22 16" xmlns="http://www.w3.org/2000/svg" xmlns:xlink="http://www.w3.org/1999/xlink" width="22.000000" height="16.000000" fill="none">
	<rect id="Frame" width="22.000000" height="16.000000" x="0.000000" y="0.000000" />
	<g id="Group">
		<path id="Vector" d="M22.37 7.71L22.37 9.33C22.37 11.06 22.15 12.79 22.15 12.79C22.15 12.79 21.95 14.26 21.31 14.91C20.49 15.76 19.58 15.77 19.16 15.82C16.17 16.04 11.68 16.04 11.68 16.04C11.68 16.04 6.12998 15.99 4.41998 15.83C3.93998 15.74 2.88 15.76 2.06 14.91C1.42 14.26 1.21002 12.79 1.21002 12.79C1.21002 12.79 1 11.06 1 9.33L1 7.71C1 5.98 1.21002 4.24 1.21002 4.24C1.21002 4.24 1.42 2.77 2.06 2.12C2.88 1.27 3.79001 1.27 4.20001 1.22C7.19001 1 11.68 1 11.68 1L11.69 1C11.69 1 16.17 1 19.16 1.22C19.58 1.27 20.49 1.27 21.31 2.12C21.95 2.77 22.15 4.24 22.15 4.24C22.15 4.24 22.37 5.98 22.37 7.71ZM16.04 8.53L9.71002 5.75L9.71002 11.29L16.04 8.53Z" fill="rgb(255,255,255)" fill-rule="nonzero" />
	</g>
</svg>
